<?xml version="1.0" encoding="UTF-8" standalone="no"?>
<svg
   xmlns:dc="http://purl.org/dc/elements/1.1/"
   xmlns:cc="http://creativecommons.org/ns#"
   xmlns:rdf="http://www.w3.org/1999/02/22-rdf-syntax-ns#"
   xmlns:svg="http://www.w3.org/2000/svg"
   xmlns="http://www.w3.org/2000/svg"
   xmlns:sodipodi="http://sodipodi.sourceforge.net/DTD/sodipodi-0.dtd"
   xmlns:inkscape="http://www.inkscape.org/namespaces/inkscape"
   enable-background="new -8.5 -79.5 512 512"
   height="500"
   id="Layer_1"
   version="1.1"
   viewBox="-8.5 -79.5 1024 500"
   width="1024"
   xml:space="preserve"
   inkscape:version="0.91 r13725"
   sodipodi:docname="feature_graphic.svg"
   inkscape:export-filename="/Users/ang/Desktop/feature_graphic.png"
   inkscape:export-xdpi="90"
   inkscape:export-ydpi="90"><metadata
     id="metadata67"><rdf:RDF><cc:Work
         rdf:about=""><dc:format>image/svg+xml</dc:format><dc:type
           rdf:resource="http://purl.org/dc/dcmitype/StillImage" /><dc:title></dc:title></cc:Work></rdf:RDF></metadata><defs
     id="defs65"><filter
       inkscape:collect="always"
       style="color-interpolation-filters:sRGB"
       id="filter5190"
       x="-0.035999998"
       width="1.072"
       y="-0.035999998"
       height="1.072"><feGaussianBlur
         inkscape:collect="always"
         stdDeviation="3.2215306"
         id="feGaussianBlur5192" /></filter></defs><sodipodi:namedview
     pagecolor="#ffffff"
     bordercolor="#666666"
     borderopacity="1"
     objecttolerance="10"
     gridtolerance="10"
     guidetolerance="10"
     inkscape:pageopacity="0"
     inkscape:pageshadow="2"
     inkscape:window-width="1156"
     inkscape:window-height="671"
     id="namedview63"
     showgrid="false"
     inkscape:zoom="0.32593203"
     inkscape:cx="658.56776"
     inkscape:cy="110.22553"
     inkscape:window-x="55"
     inkscape:window-y="17"
     inkscape:window-maximized="0"
     inkscape:current-layer="Layer_1" /><rect
     style="opacity:1;fill:#e74043;fill-opacity:1;fill-rule:nonzero;stroke:none;stroke-width:3.53600001;stroke-linecap:round;stroke-linejoin:round;stroke-miterlimit:4;stroke-dasharray:none;stroke-opacity:1"
     id="rect4142"
     width="1024"
     height="500"
     x="-8.5"
     y="-79.5"
     ry="0" /><g
     id="Layer_1_1_"
     transform="translate(0,-12)" /><text
     xml:space="preserve"
     style="font-style:normal;font-weight:normal;font-size:40px;line-height:125%;font-family:Sans;letter-spacing:0px;word-spacing:0px;fill:#000000;fill-opacity:1;stroke:none"
     x="115.16102"
     y="70.127121"
     id="text4092"
     sodipodi:linespacing="125%"><tspan
       sodipodi:role="line"
       id="tspan4094"
       x="115.16102"
       y="70.127121" /></text>
<g
     id="g4141"
     transform="matrix(0.77304623,0,0,0.77304623,587.01853,36.097043)"><circle
       style="fill:#000000;fill-opacity:0.2824859;fill-rule:nonzero;stroke:none;filter:url(#filter5190)"
       id="circle4188"
       transform="matrix(2.1590271,0,0,2.1590271,-199.63106,-81.653133)"
       cx="207.09839"
       cy="122.34821"
       r="107.38435" /><circle
       id="circle4190"
       style="fill:#e74043;fill-opacity:1;fill-rule:nonzero;stroke:none"
       cx="247.5"
       cy="175.8627"
       r="231.84572" /><g
       transform="matrix(1.3103732,0,0,1.2781809,-83.241683,47.794304)"
       style="font-style:normal;font-weight:normal;font-size:239.86914062px;line-height:125%;font-family:Sans;letter-spacing:0px;word-spacing:0px;fill:#ffffff;fill-opacity:1;stroke:none"
       id="g4192"><path
         style="fill:#ffffff;fill-opacity:1"
         d="m 243.09132,70.56355 c 5.85607,-1.951942 14.56225,-2.927971 26.11856,-2.92809 19.7547,1.19e-4 36.97185,5.817252 51.65151,17.451417 14.67929,11.556285 22.01903,26.118643 22.01924,43.687103 -2.1e-4,14.21104 -5.85638,27.95353 -17.56854,41.22751 -11.63446,13.19593 -26.74339,23.54184 -45.32683,31.03775 l -12.41511,-20.61375 c 35.76158,-14.28906 53.64243,-30.92059 53.64261,-49.89465 -1.8e-4,-7.96435 -2.49882,-15.26504 -7.49591,-21.90212 -4.99744,-6.715 -11.51732,-11.39994 -19.55964,-14.054831 -10.22894,29.827541 -23.50294,51.495381 -39.82202,65.003601 1.32728,4.45072 3.31838,8.82333 5.9733,13.11784 l -21.3165,9.13564 -3.39658,-8.66714 c -10.46313,6.71509 -22.13644,10.07263 -35.01996,10.07263 -10.85351,0 -20.02818,-3.70891 -27.52405,-11.12675 -7.41785,-7.49588 -11.12676,-17.06097 -11.12674,-28.69528 -2e-5,-15.14793 5.38766,-28.81233 16.16306,-40.99326 10.8534,-12.180758 25.29863,-21.277349 43.33573,-27.289799 -0.15625,-5.309487 -0.23433,-13.46909 -0.23424,-24.478834 l -46.02958,5.50481 -2.57672,-21.550743 48.84054,-5.856181 1.75686,-29.39802413 22.95622,1.40548325 C 245.12135,6.53616 244.18436,14.851928 243.32557,25.70521 l 70.74265,-8.4329 3.04522,21.784991 -74.49061,9.604135 0.46849,21.902114 m 29.2809,19.911013 c -1.09329,-0.156069 -2.88918,-0.234151 -5.38768,-0.234248 -7.88645,9.7e-5 -15.38235,0.702838 -22.48774,2.108225 1.32729,17.25629 2.77182,31.15494 4.33358,41.696 7.8862,-8.04242 15.73347,-22.56574 23.54184,-43.569977 m -42.75011,60.670027 c -3.74805,-20.45753 -5.9734,-38.45551 -6.67605,-53.993982 -11.24394,4.060372 -20.61382,10.228872 -28.10966,18.505532 -7.49597,8.27679 -11.24392,16.98297 -11.24387,26.11856 -5e-5,5.46581 1.87393,9.95554 5.62193,13.46922 3.7479,3.51373 8.589,5.27058 14.52333,5.27056 7.41775,2e-5 16.04585,-3.12327 25.88432,-9.36989"
         id="path4194"
         inkscape:connector-curvature="0" /></g></g><text
     xml:space="preserve"
     style="font-style:normal;font-variant:normal;font-weight:normal;font-stretch:normal;font-size:90px;line-height:125%;font-family:'PT Sans';-inkscape-font-specification:'PT Sans';letter-spacing:0px;word-spacing:0px;fill:#ffffff;fill-opacity:1;stroke:none;stroke-width:1px;stroke-linecap:butt;stroke-linejoin:miter;stroke-opacity:1"
     x="60.923737"
     y="157.78815"
     id="text4144"
     sodipodi:linespacing="125%"><tspan
       sodipodi:role="line"
       id="tspan4146"
       x="60.923737"
       y="157.78815">Kotobyte</tspan></text>
<text
     sodipodi:linespacing="125%"
     id="text4148"
     y="239.61865"
     x="60.923737"
     style="font-style:normal;font-variant:normal;font-weight:normal;font-stretch:normal;font-size:90px;line-height:125%;font-family:'PT Sans';-inkscape-font-specification:'PT Sans';letter-spacing:0px;word-spacing:0px;fill:#ffffff;fill-opacity:0.50196081;stroke:none;stroke-width:1px;stroke-linecap:butt;stroke-linejoin:miter;stroke-opacity:1;"
     xml:space="preserve"><tspan
       y="239.61865"
       x="60.923737"
       id="tspan4150"
       sodipodi:role="line"
       style="font-size:50px;fill:#ffffff;fill-opacity:0.50196081;">A Japanese dictionary.</tspan></text>
</svg>